<svg xmlns="http://www.w3.org/2000/svg" width="66" height="44" viewBox="0 0 66 44" xmlns:xlink="http://www.w3.org/1999/xlink">
  <defs>
    <path id="path-1" d="M4.706 43.66s-.964-4.784-2.153-6.346c-.717-1.194-1.315-2.457-1.784-3.77-.19-1.018 4.6-.508 4.6-1.73 0-1.224-4.008-4.11-.94-9.372 3.068-5.263 4.6-2.716 5.822-4.176 1.222-1.46 3.05-7.407 3.9-7.712.85-.305 5.73 3.633 5.667 4.108-.064.475 0 2.14-1.36 1.834-.628-.14-4.465-2.037-4.59-1.29-.125.747-2.2 5.3 1.395 5.268 3.595-.032 4.508-1.188 6.2-.34 1.692.848 3.85-.373 4.57-1.766.72-1.393 3.85-.645 4.946-1.46 1.097-.815 3.79-2.784 4.728-3.565.94-.78 2.035 2.716 3.568 2.852 1.533.136 6.135.2 6.323-1.664.187-1.863 6.51-3.428 7.355-7.4.595-2.587 2.206-4.827 4.47-6.214.314-.1 2.1 1.46 2.1 1.9 0 .44-2.225 2.684-1.16 3.872 1.065 1.188 3.036 3.463 2.942 4.482-.094 1.02-1.628 2.954-.783 3.837.845.883 1.127-.238 3.068 3.056 1.94 3.294 2.19 8.658 2.19 8.658s-5.258-3.293-5.727-4.685c-.47-1.392-1.69-6.248-2.348-5.908-.658.34-2.1 2.682-1.6 4.21s-2.473 2.14-2.285 5.33c.188 3.193.783 3.974 3.068 2.82 2.285-1.156 3.068 1.63 3.068 1.63s1.722 8.623 1.315 9.336c-.407.713-3.1 1.8-3.1 1.8l-1.158-5.874s-5.822-4.62-8.514-1.9c-2.69 2.717 2.657 5.824-2.44 7.736-6.52 2.445-5.434-.34-8.082.136-4.89.878-6.538.426-9.8-1.815-2.314-1.59-2.217-4.937-7.225-5.344-5.008-.407-5.008 1.222-5.008 2.173 0 .95-3.005 2.173-4.132 0-1.127-2.173-2.254-3.8-3.63-1.494-1.378 2.306-.126 3.53-.126 3.53l-3.35 5.257z"/>
    <linearGradient id="linearGradient-3" x1="50%" x2="50%" y1="97.028%" y2="-1.442%">
      <stop stop-color="#2F6182" offset="0%"/>
      <stop stop-color="#1E78B8" offset="100%"/>
    </linearGradient>
    <linearGradient id="linearGradient-4" x1="50%" x2="50%" y1="8.313%" y2="94.422%">
      <stop stop-color="#FF1D38" offset="0%"/>
      <stop stop-color="#C70037" offset="99.5%"/>
    </linearGradient>
  </defs>
  <g id="Page-1" fill="none" fill-rule="evenodd">
    <g id="Ресурс-2">
      <g id="Слой_2">
        <g id="Layer_1">
          <g id="Clipped">
            <mask id="mask-2" fill="#fff">
              <use xlink:href="#path-1"/>
            </mask>
            <g id="Group" mask="url(#mask-2)">
              <g id="Rectangle-path">
                <path fill="#FFF" d="M-12 0h85.572v14.772H-12z"/>
                <path fill="url(#linearGradient-3)" d="M0 14.772h85.572v14.772H0z" transform="translate(-12)"/>
                <path fill="url(#linearGradient-4)" d="M0 29.544h85.572v14.772H0z" transform="translate(-12)"/>
              </g>
            </g>
          </g>
        </g>
      </g>
    </g>
  </g>
</svg>
